<svg xmlns="http://www.w3.org/2000/svg" xmlns:xlink="http://www.w3.org/1999/xlink" width="40" zoomAndPan="magnify" viewBox="0 0 30 30.000001" height="40" preserveAspectRatio="xMidYMid meet" version="1.0"><defs><clipPath id="428aff4e44"><path d="M 4.332031 7 L 8 7 L 8 11 L 4.332031 11 Z M 4.332031 7 " clip-rule="nonzero"/></clipPath><clipPath id="30ba07c93c"><path d="M 9 7 L 25.382812 7 L 25.382812 11 L 9 11 Z M 9 7 " clip-rule="nonzero"/></clipPath><clipPath id="ad24e1384d"><path d="M 4.332031 12 L 8 12 L 8 17 L 4.332031 17 Z M 4.332031 12 " clip-rule="nonzero"/></clipPath><clipPath id="c7eff904e4"><path d="M 9 12 L 25.382812 12 L 25.382812 17 L 9 17 Z M 9 12 " clip-rule="nonzero"/></clipPath><clipPath id="ecece9d1a7"><path d="M 4.332031 18.328125 L 8 18.328125 L 8 22.222656 L 4.332031 22.222656 Z M 4.332031 18.328125 " clip-rule="nonzero"/></clipPath><clipPath id="958867cf22"><path d="M 9.117188 18.328125 L 25.382812 18.328125 L 25.382812 22.222656 L 9.117188 22.222656 Z M 9.117188 18.328125 " clip-rule="nonzero"/></clipPath></defs><g clip-path="url(#428aff4e44)"><path fill="#a6a6a6" d="M 6.148438 7.023438 C 7.152344 7.023438 7.964844 7.859375 7.964844 8.890625 C 7.964844 9.921875 7.152344 10.757812 6.148438 10.757812 C 5.148438 10.757812 4.332031 9.921875 4.332031 8.890625 C 4.332031 7.859375 5.148438 7.023438 6.148438 7.023438 " fill-opacity="1" fill-rule="nonzero"/></g><g clip-path="url(#30ba07c93c)"><path fill="#a6a6a6" d="M 11.101562 7.023438 L 23.566406 7.023438 C 24.570312 7.023438 25.382812 7.859375 25.382812 8.890625 C 25.382812 9.921875 24.570312 10.757812 23.566406 10.757812 L 11.101562 10.757812 C 10.097656 10.757812 9.285156 9.921875 9.285156 8.890625 C 9.285156 7.859375 10.097656 7.023438 11.101562 7.023438 " fill-opacity="1" fill-rule="nonzero"/></g><g clip-path="url(#ad24e1384d)"><path fill="#a6a6a6" d="M 6.148438 12.757812 C 7.152344 12.757812 7.964844 13.59375 7.964844 14.625 C 7.964844 15.65625 7.152344 16.492188 6.148438 16.492188 C 5.148438 16.492188 4.332031 15.65625 4.332031 14.625 C 4.332031 13.59375 5.148438 12.757812 6.148438 12.757812 " fill-opacity="1" fill-rule="nonzero"/></g><g clip-path="url(#c7eff904e4)"><path fill="#a6a6a6" d="M 11.101562 12.757812 L 23.566406 12.757812 C 24.570312 12.757812 25.382812 13.59375 25.382812 14.625 C 25.382812 15.65625 24.570312 16.492188 23.566406 16.492188 L 11.101562 16.492188 C 10.097656 16.492188 9.285156 15.65625 9.285156 14.625 C 9.285156 13.59375 10.097656 12.757812 11.101562 12.757812 " fill-opacity="1" fill-rule="nonzero"/></g><g clip-path="url(#ecece9d1a7)"><path fill="#a6a6a6" d="M 6.148438 18.496094 C 7.152344 18.496094 7.964844 19.328125 7.964844 20.359375 C 7.964844 21.390625 7.152344 22.222656 6.148438 22.222656 C 5.148438 22.222656 4.332031 21.390625 4.332031 20.359375 C 4.332031 19.328125 5.148438 18.496094 6.148438 18.496094 " fill-opacity="1" fill-rule="nonzero"/></g><g clip-path="url(#958867cf22)"><path fill="#a6a6a6" d="M 11.101562 18.496094 L 23.566406 18.496094 C 24.570312 18.496094 25.382812 19.328125 25.382812 20.359375 C 25.382812 21.390625 24.570312 22.222656 23.566406 22.222656 L 11.101562 22.222656 C 10.097656 22.222656 9.285156 21.390625 9.285156 20.359375 C 9.285156 19.328125 10.097656 18.496094 11.101562 18.496094 " fill-opacity="1" fill-rule="nonzero"/></g></svg>