<svg xmlns="http://www.w3.org/2000/svg" xmlns:xlink="http://www.w3.org/1999/xlink" width="40" zoomAndPan="magnify" viewBox="0 0 30 30.000001" height="40" preserveAspectRatio="xMidYMid meet" version="1.0"><defs><clipPath id="08fdc1611b"><path d="M 4.816406 6.625 L 25.136719 6.625 L 25.136719 17 L 4.816406 17 Z M 4.816406 6.625 " clip-rule="nonzero"/></clipPath><clipPath id="6d0da9f93b"><path d="M 8 10 L 22 10 L 22 22.589844 L 8 22.589844 Z M 8 10 " clip-rule="nonzero"/></clipPath></defs><g clip-path="url(#08fdc1611b)"><path fill="#0e34a0" d="M 24.867188 14.515625 L 21.953125 12.078125 L 21.953125 7.179688 C 21.953125 6.945312 21.765625 6.753906 21.535156 6.753906 L 19.582031 6.753906 C 19.351562 6.753906 19.164062 6.945312 19.164062 7.179688 L 19.164062 9.746094 L 16.042969 7.140625 C 15.425781 6.628906 14.535156 6.628906 13.917969 7.140625 L 5.09375 14.515625 C 4.914062 14.664062 4.890625 14.929688 5.039062 15.113281 L 5.925781 16.207031 C 6.074219 16.390625 6.335938 16.414062 6.515625 16.265625 L 14.714844 9.414062 C 14.871094 9.289062 15.09375 9.289062 15.25 9.414062 L 23.449219 16.265625 C 23.625 16.414062 23.890625 16.390625 24.039062 16.210938 L 24.925781 15.113281 C 25.074219 14.933594 25.046875 14.664062 24.867188 14.515625 " fill-opacity="1" fill-rule="nonzero"/></g><g clip-path="url(#6d0da9f93b)"><path fill="#0e34a0" d="M 20.070312 19.65625 C 20.070312 19.960938 19.824219 20.210938 19.523438 20.210938 L 16.878906 20.210938 C 16.578125 20.210938 16.335938 19.960938 16.335938 19.65625 L 16.335938 17.78125 C 16.335938 17.476562 16.578125 17.230469 16.878906 17.230469 L 19.523438 17.230469 C 19.824219 17.230469 20.070312 17.476562 20.070312 17.78125 Z M 15.25 10.863281 C 15.09375 10.738281 14.871094 10.738281 14.714844 10.863281 L 8.289062 16.234375 L 8.289062 22.03125 C 8.289062 22.34375 8.539062 22.59375 8.847656 22.59375 L 9.964844 22.59375 L 9.964844 18.277344 C 9.964844 17.757812 10.378906 17.339844 10.890625 17.339844 L 13.65625 17.339844 C 14.167969 17.339844 14.578125 17.757812 14.578125 18.277344 L 14.578125 22.59375 L 21.117188 22.59375 C 21.425781 22.59375 21.671875 22.34375 21.671875 22.03125 L 21.671875 16.230469 L 15.25 10.863281 " fill-opacity="1" fill-rule="nonzero"/></g></svg>