<svg xmlns="http://www.w3.org/2000/svg" xmlns:xlink="http://www.w3.org/1999/xlink" width="40" zoomAndPan="magnify" viewBox="0 0 30 30.000001" height="40" preserveAspectRatio="xMidYMid meet" version="1.0"><defs><clipPath id="fdc1bcdb1c"><path d="M 2.730469 5.003906 L 27.40625 5.003906 L 27.40625 17 L 2.730469 17 Z M 2.730469 5.003906 " clip-rule="nonzero"/></clipPath><clipPath id="04b9426ef5"><path d="M 6 9 L 24 9 L 24 23.875 L 6 23.875 Z M 6 9 " clip-rule="nonzero"/></clipPath></defs><g clip-path="url(#fdc1bcdb1c)"><path fill="#a6a6a6" d="M 27.082031 14.332031 L 23.542969 11.453125 L 23.542969 5.664062 C 23.542969 5.386719 23.316406 5.160156 23.035156 5.160156 L 20.664062 5.160156 C 20.382812 5.160156 20.15625 5.386719 20.15625 5.664062 L 20.15625 8.699219 L 16.363281 5.621094 C 15.613281 5.011719 14.53125 5.011719 13.78125 5.621094 L 3.058594 14.332031 C 2.84375 14.507812 2.8125 14.824219 2.992188 15.039062 L 4.070312 16.332031 C 4.25 16.546875 4.570312 16.578125 4.785156 16.402344 C 4.789062 16.402344 4.789062 16.402344 4.789062 16.402344 L 14.75 8.304688 C 14.9375 8.15625 15.207031 8.15625 15.398438 8.304688 L 25.359375 16.402344 C 25.574219 16.578125 25.894531 16.546875 26.074219 16.335938 L 27.15625 15.039062 C 27.332031 14.824219 27.300781 14.507812 27.085938 14.332031 C 27.085938 14.332031 27.085938 14.332031 27.082031 14.332031 " fill-opacity="1" fill-rule="nonzero"/></g><g clip-path="url(#04b9426ef5)"><path fill="#a6a6a6" d="M 21.253906 20.410156 C 21.253906 20.769531 20.957031 21.0625 20.59375 21.0625 L 17.378906 21.0625 C 17.015625 21.0625 16.71875 20.769531 16.71875 20.410156 L 16.71875 18.195312 C 16.71875 17.835938 17.015625 17.542969 17.378906 17.542969 L 20.59375 17.542969 C 20.957031 17.542969 21.253906 17.835938 21.253906 18.195312 Z M 15.398438 10.019531 C 15.207031 9.867188 14.9375 9.867188 14.75 10.019531 L 6.941406 16.363281 L 6.941406 23.214844 C 6.941406 23.582031 7.246094 23.882812 7.621094 23.882812 L 8.980469 23.882812 L 8.980469 18.777344 C 8.980469 18.167969 9.480469 17.671875 10.101562 17.671875 L 13.464844 17.671875 C 14.082031 17.671875 14.585938 18.167969 14.585938 18.777344 L 14.585938 23.882812 L 22.527344 23.882812 C 22.902344 23.882812 23.203125 23.582031 23.203125 23.214844 L 23.203125 16.359375 L 15.398438 10.019531 " fill-opacity="1" fill-rule="nonzero"/></g></svg>