<svg xmlns="http://www.w3.org/2000/svg" xmlns:xlink="http://www.w3.org/1999/xlink" width="40" zoomAndPan="magnify" viewBox="0 0 30 30.000001" height="40" preserveAspectRatio="xMidYMid meet" version="1.0"><defs><clipPath id="1738c03e55"><path d="M 4.699219 4.421875 L 21 4.421875 L 21 24.742188 L 4.699219 24.742188 Z M 4.699219 4.421875 " clip-rule="nonzero"/></clipPath><clipPath id="3e5c5a9341"><path d="M 22.402344 4.703125 L 24.96875 4.703125 L 24.96875 24.5 L 22.402344 24.5 Z M 22.402344 4.703125 " clip-rule="nonzero"/></clipPath></defs><g clip-path="url(#1738c03e55)"><path fill="#737373" d="M 20.996094 24.675781 L 20.996094 4.421875 L 4.699219 4.421875 L 4.699219 23.550781 C 4.699219 23.878906 4.832031 24.179688 5.042969 24.394531 C 5.253906 24.609375 5.546875 24.746094 5.867188 24.746094 L 20.601562 24.746094 C 20.707031 24.746094 20.804688 24.730469 20.898438 24.707031 C 20.929688 24.699219 20.964844 24.6875 20.996094 24.675781 Z M 18.984375 7.671875 L 6.710938 7.671875 C 6.519531 7.671875 6.363281 7.511719 6.363281 7.316406 C 6.363281 7.117188 6.519531 6.957031 6.710938 6.957031 L 18.984375 6.957031 C 19.175781 6.957031 19.335938 7.117188 19.335938 7.316406 C 19.335938 7.511719 19.175781 7.671875 18.984375 7.671875 Z M 6.710938 10.511719 L 18.984375 10.511719 C 19.175781 10.511719 19.335938 10.671875 19.335938 10.871094 C 19.335938 11.066406 19.175781 11.226562 18.984375 11.226562 L 6.710938 11.226562 C 6.519531 11.226562 6.363281 11.066406 6.363281 10.871094 C 6.363281 10.671875 6.519531 10.511719 6.710938 10.511719 Z M 6.710938 14.070312 L 18.984375 14.070312 C 19.175781 14.070312 19.335938 14.230469 19.335938 14.425781 C 19.335938 14.625 19.175781 14.785156 18.984375 14.785156 L 6.710938 14.785156 C 6.519531 14.785156 6.363281 14.625 6.363281 14.425781 C 6.363281 14.230469 6.519531 14.070312 6.710938 14.070312 Z M 7.242188 17.367188 L 11.476562 17.367188 C 11.671875 17.367188 11.828125 17.527344 11.828125 17.722656 L 11.828125 21.851562 C 11.828125 22.046875 11.671875 22.207031 11.476562 22.207031 L 7.242188 22.207031 C 7.050781 22.207031 6.894531 22.046875 6.894531 21.851562 L 6.894531 17.722656 C 6.894531 17.527344 7.050781 17.367188 7.242188 17.367188 Z M 15.441406 17.625 L 18.984375 17.625 C 19.175781 17.625 19.335938 17.785156 19.335938 17.980469 C 19.335938 18.179688 19.175781 18.339844 18.984375 18.339844 L 15.441406 18.339844 C 15.25 18.339844 15.089844 18.179688 15.089844 17.980469 C 15.089844 17.785156 15.25 17.625 15.441406 17.625 Z M 15.089844 19.757812 C 15.089844 19.5625 15.25 19.402344 15.441406 19.402344 L 18.984375 19.402344 C 19.175781 19.402344 19.335938 19.5625 19.335938 19.757812 C 19.335938 19.957031 19.175781 20.117188 18.984375 20.117188 L 15.441406 20.117188 C 15.25 20.117188 15.089844 19.957031 15.089844 19.757812 Z M 15.089844 21.535156 C 15.089844 21.339844 15.25 21.179688 15.441406 21.179688 L 18.984375 21.179688 C 19.175781 21.179688 19.335938 21.339844 19.335938 21.535156 C 19.335938 21.734375 19.175781 21.894531 18.984375 21.894531 L 15.441406 21.894531 C 15.25 21.894531 15.089844 21.734375 15.089844 21.535156 " fill-opacity="1" fill-rule="evenodd"/></g><path fill="#737373" d="M 11.128906 21.492188 L 11.128906 18.082031 L 7.589844 18.082031 L 7.589844 21.492188 L 11.128906 21.492188 " fill-opacity="1" fill-rule="evenodd"/><g clip-path="url(#3e5c5a9341)"><path fill="#737373" d="M 24.96875 23.296875 L 24.96875 5.867188 C 24.96875 5.546875 24.847656 5.257812 24.65625 5.046875 C 24.46875 4.84375 24.210938 4.71875 23.929688 4.71875 L 22.410156 4.71875 L 22.410156 24.445312 L 23.929688 24.445312 C 24.210938 24.445312 24.46875 24.320312 24.65625 24.117188 C 24.847656 23.910156 24.96875 23.617188 24.96875 23.296875 " fill-opacity="1" fill-rule="evenodd"/></g></svg>