<?xml version="1.0" encoding="UTF-8"?>
<svg xmlns="http://www.w3.org/2000/svg" xmlns:xlink="http://www.w3.org/1999/xlink" width="100px" height="100px" viewBox="0 0 100 100" version="1.1">
<g id="surface1">
<path style=" stroke:none;fill-rule:nonzero;fill:rgb(32.54902%,35.294118%,52.156863%);fill-opacity:1;" d="M 100 50 C 100 77.613281 77.613281 100 50 100 C 22.386719 100 0 77.613281 0 50 C 0 22.386719 22.386719 0 50 0 C 77.613281 0 100 22.386719 100 50 Z M 100 50 "/>
<path style=" stroke:none;fill-rule:nonzero;fill:rgb(29.803922%,29.803922%,47.058824%);fill-opacity:1;" d="M 99.765625 55.078125 L 77.265625 32.578125 L 36.40625 50.15625 L 42.03125 55.78125 L 16.71875 77.109375 C 16.71875 77.109375 27.96875 88.359375 38.203125 98.59375 C 41.953125 99.53125 45.9375 100 49.921875 100 C 75.9375 100 97.1875 80.3125 99.765625 55.078125 Z M 99.765625 55.078125 "/>
<path style=" stroke:none;fill-rule:nonzero;fill:rgb(29.803922%,29.803922%,47.058824%);fill-opacity:1;" d="M 29.609375 36.171875 L 70.46875 36.171875 L 70.46875 67.8125 L 29.609375 67.8125 Z M 29.609375 36.171875 "/>
<path style=" stroke:none;fill-rule:nonzero;fill:rgb(100%,100%,100%);fill-opacity:1;" d="M 48.046875 14.765625 L 22.734375 32.578125 C 20 34.53125 21.328125 38.828125 24.6875 38.828125 L 75.234375 38.828125 C 78.59375 38.828125 80 34.53125 77.1875 32.578125 L 51.953125 14.765625 C 50.78125 13.984375 49.21875 13.984375 48.046875 14.765625 Z M 48.046875 14.765625 "/>
<path style=" stroke:none;fill-rule:nonzero;fill:rgb(80.784314%,83.137255%,87.45098%);fill-opacity:1;" d="M 24.6875 35.390625 L 50 17.578125 L 75.3125 35.390625 Z M 24.6875 35.390625 "/>
<path style=" stroke:none;fill-rule:nonzero;fill:rgb(80.784314%,83.137255%,87.45098%);fill-opacity:1;" d="M 64.921875 38.828125 L 64.921875 39.921875 C 64.921875 40.703125 65.546875 41.328125 66.328125 41.328125 L 72.109375 41.328125 C 72.890625 41.328125 73.515625 40.703125 73.515625 39.921875 L 73.515625 38.828125 Z M 64.921875 38.828125 "/>
<path style=" stroke:none;fill-rule:nonzero;fill:rgb(80.784314%,83.137255%,87.45098%);fill-opacity:1;" d="M 45.703125 39.921875 C 45.703125 40.703125 46.328125 41.328125 47.109375 41.328125 L 52.890625 41.328125 C 53.671875 41.328125 54.296875 40.703125 54.296875 39.921875 L 54.296875 38.828125 L 45.703125 38.828125 Z M 45.703125 39.921875 "/>
<path style=" stroke:none;fill-rule:nonzero;fill:rgb(80.784314%,83.137255%,87.45098%);fill-opacity:1;" d="M 26.484375 39.921875 C 26.484375 40.703125 27.109375 41.328125 27.890625 41.328125 L 33.671875 41.328125 C 34.453125 41.328125 35.078125 40.703125 35.078125 39.921875 L 35.078125 38.828125 L 26.484375 38.828125 Z M 26.484375 39.921875 "/>
<path style=" stroke:none;fill-rule:nonzero;fill:rgb(80.784314%,83.137255%,87.45098%);fill-opacity:1;" d="M 35.078125 66.40625 L 35.078125 65.3125 C 35.078125 64.53125 34.453125 63.90625 33.671875 63.90625 L 27.890625 63.90625 C 27.109375 63.90625 26.484375 64.53125 26.484375 65.3125 L 26.484375 66.40625 Z M 35.078125 66.40625 "/>
<path style=" stroke:none;fill-rule:nonzero;fill:rgb(80.784314%,83.137255%,87.45098%);fill-opacity:1;" d="M 54.296875 65.3125 C 54.296875 64.53125 53.671875 63.90625 52.890625 63.90625 L 47.109375 63.90625 C 46.328125 63.90625 45.703125 64.53125 45.703125 65.3125 L 45.703125 66.40625 L 54.296875 66.40625 Z M 54.296875 65.3125 "/>
<path style=" stroke:none;fill-rule:nonzero;fill:rgb(80.784314%,83.137255%,87.45098%);fill-opacity:1;" d="M 73.515625 65.3125 C 73.515625 64.53125 72.890625 63.90625 72.109375 63.90625 L 66.328125 63.90625 C 65.546875 63.90625 64.921875 64.53125 64.921875 65.3125 L 64.921875 66.40625 L 73.515625 66.40625 Z M 73.515625 65.3125 "/>
<path style=" stroke:none;fill-rule:nonzero;fill:rgb(100%,100%,100%);fill-opacity:1;" d="M 66.796875 41.328125 L 71.640625 41.328125 L 71.640625 63.90625 L 66.796875 63.90625 Z M 66.796875 41.328125 "/>
<path style=" stroke:none;fill-rule:nonzero;fill:rgb(100%,100%,100%);fill-opacity:1;" d="M 47.578125 41.328125 L 52.421875 41.328125 L 52.421875 63.90625 L 47.578125 63.90625 Z M 47.578125 41.328125 "/>
<path style=" stroke:none;fill-rule:nonzero;fill:rgb(100%,100%,100%);fill-opacity:1;" d="M 28.359375 41.328125 L 33.203125 41.328125 L 33.203125 63.90625 L 28.359375 63.90625 Z M 28.359375 41.328125 "/>
<path style=" stroke:none;fill-rule:nonzero;fill:rgb(100%,100%,100%);fill-opacity:1;" d="M 78.75 71.40625 L 78.75 69.609375 C 78.75 67.890625 77.34375 66.40625 75.546875 66.40625 L 24.453125 66.40625 C 22.734375 66.40625 21.25 67.8125 21.25 69.609375 L 21.25 71.40625 Z M 78.75 71.40625 "/>
<path style=" stroke:none;fill-rule:nonzero;fill:rgb(80.784314%,83.137255%,87.45098%);fill-opacity:1;" d="M 83.28125 77.109375 L 83.28125 75.078125 C 83.28125 73.046875 81.640625 71.40625 79.609375 71.40625 L 20.390625 71.40625 C 18.359375 71.40625 16.71875 73.046875 16.71875 75.078125 L 16.71875 77.109375 Z M 83.28125 77.109375 "/>
</g>
</svg>
